<svg width="291" height="71" viewBox="0 0 291 71" fill="none" xmlns="http://www.w3.org/2000/svg">
<ellipse cx="37.5723" cy="35.5" rx="35.6937" ry="35.5" fill="url(#paint0_linear_2009_18)"/>
<ellipse cx="37.5723" cy="35.5" rx="35.6937" ry="35.5" fill="url(#paint1_linear_2009_18)"/>
<path d="M0 0H33.8151V71H0V0Z" fill="url(#paint2_linear_2009_18)"/>
<path d="M92.52 48V22.24H102.96C106.773 22.24 109.6 23.2533 111.44 25.28C113.28 27.28 114.2 30.6133 114.2 35.28C114.2 39.68 113.293 42.9067 111.48 44.96C109.667 46.9867 106.827 48 102.96 48H92.52ZM96.88 44.64H102.28C103.96 44.64 105.36 44.4 106.48 43.92C107.6 43.4133 108.44 42.48 109 41.12C109.56 39.76 109.84 37.8133 109.84 35.28C109.84 32.7467 109.587 30.7867 109.08 29.4C108.573 28.0133 107.76 27.04 106.64 26.48C105.547 25.92 104.093 25.64 102.28 25.64H96.88V44.64ZM127.577 48.4C124.163 48.4 121.657 47.5467 120.057 45.84C118.483 44.1333 117.697 41.6933 117.697 38.52C117.697 35.3467 118.497 32.9067 120.097 31.2C121.697 29.4933 124.19 28.64 127.577 28.64C130.99 28.64 133.497 29.4933 135.097 31.2C136.697 32.9067 137.497 35.3467 137.497 38.52C137.497 41.6933 136.697 44.1333 135.097 45.84C133.523 47.5467 131.017 48.4 127.577 48.4ZM127.577 44.72C129.577 44.72 130.99 44.24 131.817 43.28C132.67 42.2933 133.097 40.7067 133.097 38.52C133.097 36.3333 132.67 34.76 131.817 33.8C130.99 32.84 129.577 32.36 127.577 32.36C125.603 32.36 124.19 32.84 123.337 33.8C122.51 34.76 122.097 36.3333 122.097 38.52C122.097 40.7067 122.51 42.2933 123.337 43.28C124.19 44.24 125.603 44.72 127.577 44.72ZM141.739 48V29.04H145.739L145.939 31.04C146.872 30.2933 147.899 29.7067 149.019 29.28C150.139 28.8533 151.339 28.64 152.619 28.64C153.979 28.64 155.032 28.8667 155.779 29.32C156.552 29.7467 157.139 30.3467 157.539 31.12C158.419 30.4 159.432 29.8133 160.579 29.36C161.725 28.88 163.099 28.64 164.699 28.64C166.885 28.64 168.499 29.2 169.539 30.32C170.579 31.44 171.099 33.16 171.099 35.48V48H166.819V35.92C166.819 34.4533 166.512 33.4267 165.899 32.84C165.285 32.2533 164.285 31.96 162.899 31.96C161.992 31.96 161.125 32.12 160.299 32.44C159.499 32.76 158.805 33.24 158.219 33.88C158.299 34.1733 158.352 34.48 158.379 34.8C158.405 35.12 158.419 35.4667 158.419 35.84V48H154.379V35.96C154.379 34.5733 154.139 33.56 153.659 32.92C153.179 32.28 152.272 31.96 150.939 31.96C150.005 31.96 149.112 32.1867 148.259 32.64C147.432 33.0667 146.685 33.5867 146.019 34.2V48H141.739ZM177.597 25.08V21.48H182.357V25.08H177.597ZM177.957 48V32.36H175.077L175.477 29.04H182.317V48H177.957ZM187.403 48V29.04H191.403L191.603 31.04C192.456 30.3733 193.469 29.8133 194.643 29.36C195.843 28.88 197.163 28.64 198.603 28.64C201.056 28.64 202.843 29.2133 203.963 30.36C205.083 31.5067 205.643 33.2933 205.643 35.72V48H201.323V35.92C201.323 34.4533 201.016 33.4267 200.403 32.84C199.816 32.2533 198.696 31.96 197.043 31.96C196.056 31.96 195.083 32.16 194.123 32.56C193.189 32.96 192.403 33.48 191.763 34.12V48H187.403ZM212.128 25.08V21.48H216.888V25.08H212.128ZM212.488 48V32.36H209.608L210.008 29.04H216.848V48H212.488ZM229.174 48.4C227.147 48.4 225.627 47.8667 224.614 46.8C223.627 45.7067 223.134 44.2267 223.134 42.36V32.44H220.334V29.04H223.134V24.68L227.454 23.36V29.04H232.494L232.214 32.44H227.454V42.12C227.454 43.2133 227.707 43.9867 228.214 44.44C228.721 44.8667 229.547 45.08 230.694 45.08C231.414 45.08 232.174 44.9467 232.974 44.68V47.76C231.934 48.1867 230.667 48.4 229.174 48.4ZM238.792 55.04C237.352 55.04 236.126 54.8533 235.112 54.48V51.24C235.566 51.4 235.979 51.5067 236.352 51.56C236.752 51.6133 237.152 51.64 237.552 51.64C238.379 51.64 239.046 51.5067 239.552 51.24C240.059 50.9733 240.499 50.5467 240.872 49.96C241.272 49.4 241.699 48.6667 242.152 47.76L233.712 29.04H238.232L244.312 43.12L250.472 29.04H254.952L247.232 46.92C246.566 48.52 245.846 49.92 245.072 51.12C244.326 52.3467 243.446 53.3067 242.432 54C241.446 54.6933 240.232 55.04 238.792 55.04Z" fill="#C386FF"/>
<defs>
<linearGradient id="paint0_linear_2009_18" x1="37.5723" y1="0" x2="37.5723" y2="71" gradientUnits="userSpaceOnUse">
<stop stop-color="#C386FF"/>
<stop offset="1" stop-color="#D016B3"/>
</linearGradient>
<linearGradient id="paint1_linear_2009_18" x1="37.5723" y1="0" x2="37.5723" y2="71" gradientUnits="userSpaceOnUse">
<stop stop-color="#C386FF"/>
<stop offset="1" stop-color="#D016B3"/>
</linearGradient>
<linearGradient id="paint2_linear_2009_18" x1="16.9075" y1="0" x2="16.9075" y2="71" gradientUnits="userSpaceOnUse">
<stop stop-color="#FFCA7A"/>
<stop offset="1" stop-color="#ED5D3D"/>
</linearGradient>
</defs>
</svg>
